<svg xmlns="http://www.w3.org/2000/svg" width="19.031" height="20.1" viewBox="0 0 19.031 20.1">
  <g id="np_download_1863210_000000" transform="translate(-7.836 -5.469)">
    <path id="Caminho_787" data-name="Caminho 787" d="M30.34,22.306a.586.586,0,0,0,.853,0l5.02-5.76a.6.6,0,0,0,.078-.115.528.528,0,0,0-.1-.715l-.178-.154a.6.6,0,0,0-.83.023l-3.71,4.258V6.057a.589.589,0,0,0-.588-.588h-.235a.588.588,0,0,0-.588.588V19.843l-3.71-4.257a.6.6,0,0,0-.83-.023l-.176.153a.533.533,0,0,0-.182.435.654.654,0,0,0,.16.395Z" transform="translate(-13.415)" fill="#004568"/>
    <path id="Caminho_788" data-name="Caminho 788" d="M26.28,60.559h-.235a.557.557,0,0,0-.4.157l-.017.017-.019.019a.559.559,0,0,0-.153.4v5.668H9.248V61.147a.588.588,0,0,0-.588-.588H8.424a.589.589,0,0,0-.588.588v6.491a.588.588,0,0,0,.588.588H26.28a.588.588,0,0,0,.588-.588V61.147a.588.588,0,0,0-.587-.588Z" transform="translate(0 -42.657)" fill="#004568"/>
  </g>
</svg>
