<svg xmlns="http://www.w3.org/2000/svg" width="61.785" height="61.785" viewBox="0 0 61.785 61.785">
  <g id="Grupo_1141" data-name="Grupo 1141" transform="translate(-125 -1067)">
    <g id="np_carbon-emissions_2615592_000000" transform="translate(125 1067)">
      <path id="Caminho_734" data-name="Caminho 734" d="M53.468,14.893a4.918,4.918,0,1,0-4.918,4.893A4.911,4.911,0,0,0,53.468,14.893Zm-8.29,0a3.373,3.373,0,1,1,3.373,3.349A3.366,3.366,0,0,1,45.178,14.893Z" transform="translate(-17.658 -10)" fill="#fa6540"/>
      <path id="Caminho_735" data-name="Caminho 735" d="M72.333,19.844a4.906,4.906,0,0,0,.03,9.811h.015a4.906,4.906,0,0,0-.03-9.811h-.015Zm3.385,4.921a3.337,3.337,0,0,1-3.349,3.349,3.389,3.389,0,0,1-3.376-3.376,3.337,3.337,0,0,1,3.34-3.349h.009a3.389,3.389,0,0,1,3.376,3.376Z" transform="translate(-23.08 -12.241)" fill="#fa6540"/>
      <path id="Caminho_736" data-name="Caminho 736" d="M77.328,48.55a4.893,4.893,0,1,0,4.893-4.918A4.911,4.911,0,0,0,77.328,48.55Zm4.893-3.373a3.373,3.373,0,1,1-3.349,3.373A3.366,3.366,0,0,1,82.221,45.177Z" transform="translate(-25.329 -17.658)" fill="#fa6540"/>
      <path id="Caminho_737" data-name="Caminho 737" d="M72.383,67.453h-.015a4.905,4.905,0,1,0-.03,9.811h.015a4.934,4.934,0,0,0,4.914-4.914,4.882,4.882,0,0,0-4.884-4.9Zm2.344,7.274a3.369,3.369,0,0,1-2.383.993h-.009a3.337,3.337,0,0,1-3.34-3.349,3.389,3.389,0,0,1,3.376-3.376h.009a3.337,3.337,0,0,1,3.34,3.349A3.373,3.373,0,0,1,74.727,74.727Z" transform="translate(-23.081 -23.081)" fill="#fa6540"/>
      <path id="Caminho_738" data-name="Caminho 738" d="M43.633,82.221a4.918,4.918,0,1,0,4.918-4.893A4.911,4.911,0,0,0,43.633,82.221Zm8.29,0a3.373,3.373,0,1,1-3.373-3.349A3.366,3.366,0,0,1,51.923,82.221Z" transform="translate(-17.658 -25.329)" fill="#fa6540"/>
      <path id="Caminho_739" data-name="Caminho 739" d="M24.758,77.264h.015a4.906,4.906,0,0,0-.03-9.811h-.015a4.894,4.894,0,0,0-3.439,8.366,4.916,4.916,0,0,0,3.469,1.445Zm-2.392-7.292a3.318,3.318,0,0,1,2.362-.977h.009a3.389,3.389,0,0,1,3.376,3.376,3.337,3.337,0,0,1-3.34,3.349h-.009a3.389,3.389,0,0,1-3.376-3.376A3.314,3.314,0,0,1,22.366,69.972Z" transform="translate(-12.241 -23.081)" fill="#fa6540"/>
      <path id="Caminho_740" data-name="Caminho 740" d="M14.893,53.468A4.918,4.918,0,1,0,10,48.55,4.911,4.911,0,0,0,14.893,53.468Zm0-8.29a3.373,3.373,0,1,1-3.349,3.373A3.366,3.366,0,0,1,14.893,45.178Z" transform="translate(-10 -17.658)" fill="#fa6540"/>
      <path id="Caminho_741" data-name="Caminho 741" d="M24.725,29.655h.015a4.915,4.915,0,0,0,3.484-8.381,4.819,4.819,0,0,0-3.466-1.43,4.934,4.934,0,0,0-4.914,4.914,4.882,4.882,0,0,0,4.881,4.9Zm-2.344-7.274a3.369,3.369,0,0,1,2.383-.993h.009a3.337,3.337,0,0,1,3.34,3.349,3.389,3.389,0,0,1-3.376,3.376h-.009a3.337,3.337,0,0,1-3.34-3.349A3.374,3.374,0,0,1,22.381,22.381Z" transform="translate(-12.241 -12.241)" fill="#fa6540"/>
      <path id="Caminho_742" data-name="Caminho 742" d="M33.77,20.378a25.3,25.3,0,0,1,5.062-2.136.771.771,0,1,0-.44-1.478,26.557,26.557,0,0,0-5.376,2.269.771.771,0,1,0,.754,1.346Z" transform="translate(-15.15 -11.532)" fill="#fa6540"/>
      <path id="Caminho_743" data-name="Caminho 743" d="M58.694,18.1a25.052,25.052,0,0,1,5.089,2.07.772.772,0,0,0,.736-1.358,26.612,26.612,0,0,0-5.4-2.2.772.772,0,0,0-.422,1.484Z" transform="translate(-20.959 -11.499)" fill="#fa6540"/>
      <path id="Caminho_744" data-name="Caminho 744" d="M78.688,32.6a.77.77,0,0,0-.3,1.05,25.3,25.3,0,0,1,2.136,5.062.773.773,0,0,0,.739.552.8.8,0,0,0,.22-.033A.768.768,0,0,0,82,38.268a26.557,26.557,0,0,0-2.269-5.376.769.769,0,0,0-1.047-.3Z" transform="translate(-25.549 -15.123)" fill="#fa6540"/>
      <path id="Caminho_745" data-name="Caminho 745" d="M79.3,64.8a.766.766,0,0,0,.679-.4,26.612,26.612,0,0,0,2.2-5.4.772.772,0,1,0-1.484-.422,25.122,25.122,0,0,1-2.07,5.089A.772.772,0,0,0,79.3,64.8Z" transform="translate(-25.604 -20.932)" fill="#fa6540"/>
      <path id="Caminho_746" data-name="Caminho 746" d="M59.39,81.915a.8.8,0,0,0,.22-.033,26.556,26.556,0,0,0,5.376-2.269.772.772,0,0,0-.751-1.349A25.3,25.3,0,0,1,59.173,80.4a.774.774,0,0,0,.217,1.514Z" transform="translate(-21.07 -25.52)" fill="#fa6540"/>
      <path id="Caminho_747" data-name="Caminho 747" d="M33.475,79.857a26.612,26.612,0,0,0,5.4,2.2.729.729,0,0,0,.211.03.772.772,0,0,0,.211-1.514,25.122,25.122,0,0,1-5.089-2.07.772.772,0,1,0-.736,1.358Z" transform="translate(-15.253 -25.575)" fill="#fa6540"/>
      <path id="Caminho_748" data-name="Caminho 748" d="M20.208,65.161a.77.77,0,0,0,.3-1.05,25.3,25.3,0,0,1-2.136-5.062.771.771,0,1,0-1.478.44,26.557,26.557,0,0,0,2.269,5.376.772.772,0,0,0,.676.4.815.815,0,0,0,.371-.1Z" transform="translate(-11.562 -21.042)" fill="#fa6540"/>
      <path id="Caminho_749" data-name="Caminho 749" d="M17.269,39.71a.729.729,0,0,0,.211.03.773.773,0,0,0,.742-.561,25.122,25.122,0,0,1,2.07-5.089.772.772,0,0,0-1.358-.736,26.612,26.612,0,0,0-2.2,5.4.771.771,0,0,0,.531.953Z" transform="translate(-11.527 -15.225)" fill="#fa6540"/>
      <path id="Caminho_750" data-name="Caminho 750" d="M53.093,34.341a8.837,8.837,0,0,1-17.675,0,19.1,19.1,0,0,1,3.788-11.363c6.692,6.692,8.08-.125,6.314-6.314C45.517,16.666,53.093,20.454,53.093,34.341Z" transform="translate(-13.473 -0.092)" fill="#fa6540"/>
    </g>
    <ellipse id="Elipse_386" data-name="Elipse 386" cx="4" cy="3.5" rx="4" ry="3.5" transform="translate(151.893 1068.893)" fill="#fa6540"/>
    <circle id="Elipse_387" data-name="Elipse 387" cx="3.5" cy="3.5" r="3.5" transform="translate(170.893 1075.893)" fill="#fa6540"/>
    <ellipse id="Elipse_388" data-name="Elipse 388" cx="3.5" cy="4" rx="3.5" ry="4" transform="translate(177.893 1093.893)" fill="#fa6540"/>
    <circle id="Elipse_389" data-name="Elipse 389" cx="3.5" cy="3.5" r="3.5" transform="translate(170.893 1112.893)" fill="#fa6540"/>
    <circle id="Elipse_390" data-name="Elipse 390" cx="4" cy="4" r="4" transform="translate(151.893 1119.893)" fill="#fa6540"/>
    <circle id="Elipse_391" data-name="Elipse 391" cx="3.5" cy="3.5" r="3.5" transform="translate(133.893 1112.893)" fill="#fa6540"/>
    <circle id="Elipse_392" data-name="Elipse 392" cx="4" cy="4" r="4" transform="translate(125.893 1093.893)" fill="#fa6540"/>
    <circle id="Elipse_393" data-name="Elipse 393" cx="3.5" cy="3.5" r="3.5" transform="translate(133.893 1075.893)" fill="#fa6540"/>
  </g>
</svg>
