<svg xmlns="http://www.w3.org/2000/svg" width="89.856" height="66.123" viewBox="0 0 89.856 66.123">
  <g id="Grupo_1207" data-name="Grupo 1207" transform="translate(-464 -358.784)">
    <g id="np_car_1653421_000000" transform="translate(464.004 359.867)">
      <path id="Caminho_751" data-name="Caminho 751" d="M58.01,31.133H25.991L20.326,43.955,0,45.574v12H9.035a8.331,8.331,0,0,1,16.153,0H48.248a8.331,8.331,0,0,1,16.153,0h8.133v-.748H75.1V55.454H72.534V44H62.341L58,31.133Z" transform="translate(0)" fill="#fa6540"/>
      <path id="Caminho_752" data-name="Caminho 752" d="M23.858,62.224A5.421,5.421,0,1,1,18.439,56.8a5.42,5.42,0,0,1,5.419,5.423" transform="translate(-1.321 -2.604)" fill="#fa6540" fill-rule="evenodd"/>
      <path id="Caminho_753" data-name="Caminho 753" d="M67.5,62.224A5.421,5.421,0,1,1,62.08,56.8,5.421,5.421,0,0,1,67.5,62.224" transform="translate(-5.748 -2.604)" fill="#fa6540" fill-rule="evenodd"/>
      <path id="Caminho_754" data-name="Caminho 754" d="M23.858,62.224A5.421,5.421,0,1,1,18.439,56.8a5.42,5.42,0,0,1,5.419,5.423" transform="translate(-1.321 -2.604)" fill="#fa6540" fill-rule="evenodd"/>
      <path id="Caminho_755" data-name="Caminho 755" d="M89.151,56.766a.7.7,0,0,1,0,1.4.65.65,0,0,1-.235-.042.7.7,0,0,1-1.32-.1A1.016,1.016,0,0,1,86,58.2a.675.675,0,0,1-.242.042.7.7,0,1,1,0-1.4.728.728,0,0,1,.175.021,1.014,1.014,0,0,1,.8-.386,1.161,1.161,0,0,1,.193.018,1.019,1.019,0,0,1,1.937.34.679.679,0,0,1,.291-.063Z" transform="translate(-8.629 -2.513)" fill="#fa6540"/>
      <path id="Caminho_756" data-name="Caminho 756" d="M97.974,54.376a1.141,1.141,0,0,1,0,2.281,1.153,1.153,0,0,1-.383-.067,1.141,1.141,0,0,1-2.148-.161,1.659,1.659,0,0,1-2.6.277,1.14,1.14,0,0,1-1.534-1.071,1.144,1.144,0,0,1,1.141-1.144,1.318,1.318,0,0,1,.288.035,1.651,1.651,0,0,1,1.3-.628,1.521,1.521,0,0,1,.312.032,1.657,1.657,0,0,1,3.152.548,1.126,1.126,0,0,1,.474-.1Z" transform="translate(-9.263 -2.215)" fill="#fa6540"/>
    </g>
    <path id="np_pollution_2983128_000000" d="M42.755,17.821A5.062,5.062,0,0,0,35.092,14a6.543,6.543,0,0,0-12.325,4.058,2.807,2.807,0,0,0-1.284-.309c-3.7,0-3.7,5.623,0,5.623A2.808,2.808,0,0,0,24.241,21.1a6.567,6.567,0,0,0,9.544.382,5.075,5.075,0,0,0,7.278.622,2.808,2.808,0,0,0,2.347,1.262c4.133,0,3.38-6.513-.656-5.546ZM18.4,30.007Zm0,19.6,4.463-15.853Z" transform="translate(459.547 348.498)" fill="#fa6540"/>
    <path id="np_pollution_2983128_000000-2" data-name="np_pollution_2983128_000000" d="M42.755,17.821A5.062,5.062,0,0,0,35.092,14a6.543,6.543,0,0,0-12.325,4.058,2.807,2.807,0,0,0-1.284-.309c-3.7,0-3.7,5.623,0,5.623A2.808,2.808,0,0,0,24.241,21.1a6.567,6.567,0,0,0,9.544.382,5.075,5.075,0,0,0,7.278.622,2.808,2.808,0,0,0,2.347,1.262c4.133,0,3.38-6.513-.656-5.546ZM18.4,30.007Zm0,19.6,4.463-15.853Z" transform="translate(497.547 353.498)" fill="#fa6540"/>
  </g>
</svg>
