<svg xmlns="http://www.w3.org/2000/svg" width="74.314" height="66.557" viewBox="0 0 74.314 66.557">
  <g id="Grupo_1140" data-name="Grupo 1140" transform="translate(-142 -870)">
    <g id="np_pine-tree_1235462_000000" transform="translate(142 870)">
      <path id="Caminho_707" data-name="Caminho 707" d="M78.68,52.336a2.327,2.327,0,0,0-2.454.646l-.179.194L74.4,41.863a2.328,2.328,0,0,0-4.053-1.235l-1.414,1.553-2.245-8.372a2.329,2.329,0,0,0-3.968-.955l-12.23,13.38L33.074,29.672l-3.215,3.361L47.346,49.7,35.574,62.586a2.33,2.33,0,0,0,1.313,3.883l8.542,1.508L44.015,69.53a2.33,2.33,0,0,0,1.593,3.883l11.414.622-.185.155a2.329,2.329,0,0,0,1.693,3.883l21.588.24h0a2.324,2.324,0,0,0,2.33-2.56L80.263,54.317a2.328,2.328,0,0,0-1.583-1.981Z" transform="translate(-8.142 -12.191)" fill="#fa6540"/>
      <path id="Caminho_708" data-name="Caminho 708" d="M17.551,57.871H22.21V85.049H17.551Z" transform="translate(-5.392 -18.493)" fill="#fa6540"/>
      <path id="Caminho_709" data-name="Caminho 709" d="M35.12,7.26a.386.386,0,0,0-.519,0l-9.91,7.765a.39.39,0,0,0,.055.646l2.181,1.2-6.212,7.865a.384.384,0,0,0,.03.507.389.389,0,0,0,.507.045l11.957-8.884a.388.388,0,0,0-.14-.692L29.32,14.8l5.824-6.989a.394.394,0,0,0,.1-.279.375.375,0,0,0-.127-.273Z" transform="translate(-6.08 -7.16)" fill="#fa6540"/>
      <path id="Caminho_710" data-name="Caminho 710" d="M7.769,36.528a.385.385,0,0,0,.34-.133l1.632-1.853,6.4,7.7v0a.391.391,0,0,0,.3.14.386.386,0,0,0,.355-.552L10.578,28.272v0a.388.388,0,0,0-.349-.227.369.369,0,0,0-.355.218L8.2,31.769,2.583,24.607a.389.389,0,0,0-.652.413L7.472,36.334a.389.389,0,0,0,.3.194Z" transform="translate(-1.892 -11.027)" fill="#fa6540"/>
    </g>
  </g>
</svg>
