<svg xmlns="http://www.w3.org/2000/svg" width="119.05" height="66.473" viewBox="0 0 119.05 66.473">
  <g id="Grupo_1208" data-name="Grupo 1208" transform="translate(-578 -770.527)">
    <path id="np_tree_888738_000000" d="M60.19,49.772h5.865l-11.73-17.6H60.19l-11.73-17.6-11.73,17.6H42.6l-11.73,17.6H36.73L25,67.367H44.549V81.055h7.822V67.367H71.92Z" transform="translate(553 755.945)" fill="#fa6540"/>
    <path id="np_tree_374694_000000" d="M69.2,36.521A7.732,7.732,0,0,0,63.7,29.18a9.145,9.145,0,0,0,.221-1.982,9.7,9.7,0,0,0-8.956-9.69,7.629,7.629,0,0,0-7.634-7.634,9.155,9.155,0,0,0-1.394.146A9.754,9.754,0,0,0,37.49,5.1a9.6,9.6,0,0,0-8.735,5.581,5.912,5.912,0,0,0-3.011-.734,6.548,6.548,0,0,0-6.533,6.533v.513a9.683,9.683,0,0,0-8.518,9.619,9.984,9.984,0,0,0,.221,2.128A9.068,9.068,0,0,0,9,34.248,8.651,8.651,0,0,0,10.248,38.8,8.583,8.583,0,0,0,9,43.279,8.427,8.427,0,0,0,15.534,51.5a6.547,6.547,0,0,0,6.387,5.065,7.172,7.172,0,0,0,3.671-1.1,9.01,9.01,0,0,0,6.24,2.495,10.565,10.565,0,0,0,4.4-1.1l0,14.244h5.873V58.475a7.575,7.575,0,0,0,4.113-1.468,8.448,8.448,0,0,0,2.716.442A8.579,8.579,0,0,0,56.65,52.53a7.147,7.147,0,0,0,1.247.146,6.046,6.046,0,0,0,6.02-6.02,5.454,5.454,0,0,0-.66-2.644A7.721,7.721,0,0,0,69.2,36.522Z" transform="translate(627.848 765.898)" fill="#fa6540"/>
  </g>
</svg>
