<svg xmlns="http://www.w3.org/2000/svg" width="51.939" height="46.517" viewBox="0 0 51.939 46.517">
  <g id="Grupo_1140" data-name="Grupo 1140" transform="translate(-142 -870)">
    <g id="np_pine-tree_1235462_000000" transform="translate(142 870)">
      <path id="Caminho_707" data-name="Caminho 707" d="M63.98,45.512a1.626,1.626,0,0,0-1.715.452l-.125.136-1.151-7.907a1.627,1.627,0,0,0-2.832-.863l-.988,1.085L55.6,32.564a1.628,1.628,0,0,0-2.773-.668l-8.548,9.351L32.106,29.672l-2.247,2.349L42.081,43.668l-8.228,9.008a1.628,1.628,0,0,0,.918,2.714l5.97,1.054-.988,1.085a1.629,1.629,0,0,0,1.113,2.714l7.977.435-.129.108A1.628,1.628,0,0,0,49.9,63.5l15.088.167h0a1.624,1.624,0,0,0,1.628-1.789L65.087,46.9a1.627,1.627,0,0,0-1.107-1.384Z" transform="translate(-14.681 -17.454)" fill="#fa6540"/>
      <path id="Caminho_708" data-name="Caminho 708" d="M17.551,57.871h3.256v19H17.551Z" transform="translate(-9.053 -30.349)" fill="#fa6540"/>
      <path id="Caminho_709" data-name="Caminho 709" d="M30.758,7.23a.27.27,0,0,0-.363,0L23.47,12.657a.272.272,0,0,0,.038.452l1.524.842-4.342,5.5a.268.268,0,0,0,.021.354.272.272,0,0,0,.354.032l8.357-6.209a.271.271,0,0,0-.1-.483L26.7,12.5l4.07-4.884a.275.275,0,0,0,.072-.2.262.262,0,0,0-.089-.191Z" transform="translate(-10.462 -7.16)" fill="#fa6540"/>
      <path id="Caminho_710" data-name="Caminho 710" d="M6,32.9a.269.269,0,0,0,.237-.093l1.141-1.3,4.471,5.385v0a.273.273,0,0,0,.208.1A.27.27,0,0,0,12.3,36.6L7.963,27.125v0a.271.271,0,0,0-.244-.159.258.258,0,0,0-.248.153L6.3,29.57,2.375,24.564a.272.272,0,0,0-.456.288L5.792,32.76A.272.272,0,0,0,6,32.9Z" transform="translate(-1.892 -15.073)" fill="#fa6540"/>
    </g>
  </g>
</svg>
