<svg xmlns="http://www.w3.org/2000/svg" width="41.714" height="41.517" viewBox="0 0 41.714 41.517">
  <g id="np_fire_888691_000000" transform="translate(-16.508 -16.664)">
    <path id="Caminho_704" data-name="Caminho 704" d="M55.529,73.84a1.655,1.655,0,0,1-.778-.129L18.425,63.331a2.628,2.628,0,0,1,1.425-5.06l36.326,10.38a2.594,2.594,0,0,1,1.817,3.243,2.5,2.5,0,0,1-2.464,1.946Z" transform="translate(0 -15.659)" fill="#fa6540"/>
    <path id="Caminho_705" data-name="Caminho 705" d="M19.279,73.84a2.5,2.5,0,0,1-2.464-1.946,2.593,2.593,0,0,1,1.817-3.243l36.326-10.38a2.628,2.628,0,1,1,1.425,5.06L20.057,73.711a1.65,1.65,0,0,1-.778.129Z" transform="translate(-0.078 -15.659)" fill="#fa6540"/>
    <path id="Caminho_706" data-name="Caminho 706" d="M53.58,34.828a9.081,9.081,0,0,1-18.162,0A19.628,19.628,0,0,1,39.31,23.152c6.877,6.877,8.3-.129,6.488-6.488C45.8,16.666,53.58,20.559,53.58,34.828Z" transform="translate(-7.134)" fill="#fa6540"/>
  </g>
</svg>
