<svg xmlns="http://www.w3.org/2000/svg" width="33.281" height="64.262" viewBox="0 0 33.281 64.262">
  <path id="np_temperature_1676981_000000" d="M42.609,54h-4.25a2,2,0,0,0,0,4h4.25a2,2,0,0,0,0-4Zm0-10h-7.25a2,2,0,0,0,0,4h7.25a2,2,0,0,0,0-4Zm0-10h-4.25a2,2,0,0,0,0,4h4.25a2,2,0,0,0,0-4Zm0-10h-7.25a2,2,0,0,0,0,4h7.25a2,2,0,0,0,0-4Zm24,47a11,11,0,0,1-11,11,10.829,10.829,0,0,1-1.23-.07,11,11,0,0,1-5.551-19.621v-37.5a6.811,6.811,0,1,1,13.613,0v37.5A11.008,11.008,0,0,1,66.64,71Z" transform="translate(-33.359 -17.738)" fill="#fa6540"/>
</svg>
