<svg xmlns="http://www.w3.org/2000/svg" width="40.013" height="37.457" viewBox="0 0 40.013 37.457">
  <g id="np_radioactive_1210484_000000" transform="translate(-8.41 -11.102)">
    <path id="Caminho_764" data-name="Caminho 764" d="M49.648,47.814A4.443,4.443,0,1,0,45.2,52.26a4.442,4.442,0,0,0,4.444-4.446Z" transform="translate(-16.788 -16.746)" fill="#25c5e0"/>
    <path id="Caminho_765" data-name="Caminho 765" d="M33.755,24.892a1.119,1.119,0,0,0,.962.554,1.092,1.092,0,0,0,.547-.145,6.732,6.732,0,0,1,6.663,0,1.1,1.1,0,0,0,.549.145,1.124,1.124,0,0,0,.962-.554L49,15.272a1.125,1.125,0,0,0-.4-1.52,20.145,20.145,0,0,0-19.973,0,1.117,1.117,0,0,0-.582.992,1.172,1.172,0,0,0,.145.543Z" transform="translate(-10.187 0)" fill="#25c5e0"/>
    <path id="Caminho_766" data-name="Caminho 766" d="M71.889,50.3H60.772a1.112,1.112,0,0,0-1.112,1.111,6.691,6.691,0,0,1-3.337,5.773,1.111,1.111,0,0,0-.406,1.52l5.56,9.621h0a1.124,1.124,0,0,0,1.52.4A20.078,20.078,0,0,0,73,51.411,1.11,1.11,0,0,0,71.889,50.3Z" transform="translate(-24.576 -20.343)" fill="#25c5e0"/>
    <path id="Caminho_767" data-name="Caminho 767" d="M25.087,57.183l.071.043-.071-.043a6.691,6.691,0,0,1-3.337-5.772A1.112,1.112,0,0,0,20.637,50.3H9.521A1.112,1.112,0,0,0,8.41,51.411a20.08,20.08,0,0,0,9.957,17.317,1.054,1.054,0,0,0,.586.173,1.132,1.132,0,0,0,.962-.552l5.56-9.621h0a1.11,1.11,0,0,0-.391-1.545Z" transform="translate(0 -20.342)" fill="#25c5e0"/>
  </g>
</svg>
