<svg xmlns="http://www.w3.org/2000/svg" width="73.806" height="49.001" viewBox="0 0 73.806 49.001">
  <g id="np_flood_1558847_000000" transform="translate(-0.008 -16.805)">
    <path id="Caminho_757" data-name="Caminho 757" d="M69.408,74.377c-3.866-1.078-5.124-1.078-8.99,0-4.045,1.168-5.573,1.168-9.618,0-4.045-1.078-5.216-1.078-9.08,0-4.045,1.168-5.573,1.168-9.618,0-3.866-1.078-5.124-1.078-8.99,0-3.956,1.168-5.573,1.168-9.618,0a18.89,18.89,0,0,0-4.584-.81,19.044,19.044,0,0,0-4.495.81,21.2,21.2,0,0,1-4.406.9v5.395A37.476,37.476,0,0,1,4.234,79.5c4.135-1.168,5.573-1.168,9.529,0,3.777,1.078,4.945,1.168,9.08,0,3.956-1.168,5.573-1.168,9.618,0s5.216,1.078,8.99,0c3.956-1.168,5.395-1.168,9.618,0,3.777,1.078,4.945,1.168,8.99,0s5.663-1.168,9.618,0a18.233,18.233,0,0,0,4.135.81V75.008c-.81.271-2.428,0-4.406-.629Z" transform="translate(0 -14.865)" fill="#25c5e0" fill-rule="evenodd"/>
    <path id="Caminho_758" data-name="Caminho 758" d="M60.057,32.36V58.252a14.876,14.876,0,0,1-4.227-.81,15.409,15.409,0,0,0-6.652-.81V44.313h-8.9V58.159a18.182,18.182,0,0,1-3.056-.718c-4.227-1.168-6.023-1.168-10.25,0-4.584,1.349-5.484.718-9.8-.36V32.357L38.568,16.8,60.053,32.357ZM30.028,44.317H23.733V50.34h6.294Z" transform="translate(-4.495)" fill="#25c5e0" fill-rule="evenodd"/>
  </g>
</svg>
