<?xml version="1.0" encoding="utf-8"?>
<!-- Generator: Adobe Illustrator 18.0.0, SVG Export Plug-In . SVG Version: 6.00 Build 0)  -->
<!DOCTYPE svg PUBLIC "-//W3C//DTD SVG 1.1//EN" "http://www.w3.org/Graphics/SVG/1.1/DTD/svg11.dtd">
<svg version="1.1" id="Camada_1" xmlns="http://www.w3.org/2000/svg" xmlns:xlink="http://www.w3.org/1999/xlink" x="0px" y="0px"
	 viewBox="20.6 0 320.6 73.1" enable-background="new 20.6 0 320.6 73.1" xml:space="preserve">
<g id="Grupo_1207" transform="translate(-786.29 -1856.831)">
	<text transform="matrix(1 0 0 1 944 1908)" fill="#6A6A6A" font-family="'OpenSans'" font-size="25">=</text>
	<path id="np_arrow-down_888649_000000" fill="#25C5E0" d="M899.8,1900l-11.4,11.4V1874h-5.3v37.4l-11.4-11.4l-3.7,3.7l17.8,17.7
		l17.8-17.7L899.8,1900z"/>
	<path id="np_arrow-down_888649_000000-2" fill="#25C5E0" d="M1095.7,1897.5l11.4-11.4v37.4h5.3v-37.4l11.4,11.4l3.7-3.7l-17.8-17.7
		l-17.8,17.7L1095.7,1897.5z"/>
	<path id="np_savings_2419987_000000" fill="#25C5E0" d="M1063.9,1890h-1.7c-1.4-3.5-3.7-6.6-6.6-9c0.9-1.5,1.9-2.9,2.9-4.2
		c0.6-0.7,0.5-1.8-0.2-2.4c-0.3-0.2-0.6-0.3-0.9-0.4c-3.6-0.3-7.4,0.8-10.5,2c-3.8-1.4-7.8-2.1-11.8-2.1c-9.5,0-17.9,3.7-23.1,9.3
		l-4-2.4c-1.8-1.1-4.1-0.5-5.2,1.3c-1.1,1.8-0.5,4,1.2,5.1l3.9,2.4c-0.8,2.1-1.2,4.3-1.2,6.6c0,5.7,2.7,10.8,7.2,14.7l3.6,12.8
		c0.3,1,1.2,1.6,2.2,1.6h8.4c1.3,0,2.3-1,2.3-2.3c0-0.2,0-0.4-0.1-0.6l-1.3-4.6c4.1,0.7,8.2,0.7,12.3,0l1.6,5.8
		c0.3,1,1.2,1.6,2.2,1.6h8.4c1.3,0,2.3-1,2.3-2.3c0-0.2,0-0.4-0.1-0.6l-2.5-9.1c4.1-2.5,7.4-6.3,9.2-10.8h1.8c1.7,0,3.1-1.4,3.2-3.2
		v-6.5C1067,1891.4,1065.6,1890.1,1063.9,1890L1063.9,1890z M1033.2,1905.6v2.3c0,0.3-0.2,0.5-0.5,0.5c0,0,0,0,0,0h-2.3
		c-0.3,0-0.5-0.2-0.5-0.5c0,0,0,0,0,0v-2.3c-2.3-0.2-4.2-1.9-4.5-4.2c0-0.3,0.2-0.5,0.5-0.5c0,0,0,0,0,0h2.3c0.2,0,0.4,0.1,0.4,0.3
		c0.2,0.7,0.8,1.3,1.6,1.2h2c1.2,0,2.2-0.9,2.4-2.1c0.1-1.3-0.8-2.4-2.1-2.5c-0.1,0-0.1,0-0.2,0h-1.5c-2.9,0.1-5.3-2.1-5.7-4.9
		c-0.3-2.9,1.8-5.6,4.7-6v-2.3c0-0.3,0.2-0.5,0.5-0.5c0,0,0,0,0,0h2.3c0.3,0,0.5,0.2,0.5,0.5c0,0,0,0,0,0v2.3
		c2.3,0.2,4.2,1.9,4.5,4.2c0,0.3-0.2,0.5-0.5,0.5c0,0,0,0,0,0h-2.3c-0.2,0-0.4-0.1-0.4-0.3c-0.2-0.7-0.8-1.2-1.6-1.2h-2
		c-1.2,0-2.2,0.9-2.4,2.1c-0.1,1.3,0.8,2.4,2.1,2.5c0.1,0,0.1,0,0.2,0h1.7c3,0,5.4,2.4,5.4,5.4c0,0.2,0,0.4,0,0.6
		C1037.6,1903.2,1035.7,1905.2,1033.2,1905.6L1033.2,1905.6z M1051.8,1891.9c-1.6,0-2.9-1.3-2.9-2.9s1.3-2.9,2.9-2.9
		s2.9,1.3,2.9,2.9c0,0,0,0,0,0C1054.7,1890.6,1053.4,1891.9,1051.8,1891.9L1051.8,1891.9z"/>
	<g id="np_plug_2795643_000000" transform="translate(752.144 1866.849) rotate(-45)">
		<path id="Caminho_783" fill="#25C5E0" d="M11.3,94.6l10-10c6.2,3.6,14.1,2.6,19.2-2.5l11.2-11.3l-4.2-4.2l9.5-9.5l-5.9-5.9
			l-9.5,9.5l-2.5-2.5l9.5-9.5l-5.9-5.9l-9.5,9.5l-4.2-4.2L17.9,59.5c-5.1,5.1-6.1,12.9-2.5,19.2l-10,10L11.3,94.6z"/>
	</g>
</g>
</svg>
