<svg xmlns="http://www.w3.org/2000/svg" width="35.977" height="47.869" viewBox="0 0 35.977 47.869">
  <g id="Grupo_1147" data-name="Grupo 1147" transform="translate(-43.807 -451.325)">
    <g id="Grupo_887" data-name="Grupo 887" transform="translate(44.328 451.849)">
      <path id="np_energy_2456873_000000" d="M23.048,38.016,38.807,14.231a1.565,1.565,0,0,1,2.866.863l.005,12.453H56.16a1.568,1.568,0,0,1,1.329,2.395l-15.9,29.594a1.566,1.566,0,0,1-2.942-.74l0-18.319-14.289-.035a1.562,1.562,0,0,1-1.3-2.422Zm15.5-17.727L27.256,37.324l12.952.025a1.568,1.568,0,0,1,1.567,1.567V52.576L53.545,30.682H40.113a1.568,1.568,0,0,1-1.567-1.567V20.29Z" transform="translate(-22.792 -13.531)" fill="#fff" stroke="#fff" stroke-width="1"/>
      <path id="Caminho_601" data-name="Caminho 601" d="M8403.738-4880.5l-15.156-1.132v-11.221l-15.877,20.523,15.877,1.447v17.565Z" transform="translate(-8370.969 4896.801)" fill="#fff" stroke="#fff" stroke-width="1"/>
    </g>
  </g>
</svg>
