<svg xmlns="http://www.w3.org/2000/svg" width="25.523" height="47.509" viewBox="0 0 25.523 47.509">
  <path id="np_energy_1429380_000000" d="M48.329,30.358H46.885a11.482,11.482,0,0,0-8.208,3.881V22.7h.746a6.467,6.467,0,0,0,6.467-6.467V10.756A1.493,1.493,0,0,0,44.4,9.263H42.657V3.692a1.492,1.492,0,0,0-2.985,0V9.263H34.7V3.692a1.492,1.492,0,0,0-2.985,0V9.263H30.022a1.493,1.493,0,0,0-1.492,1.492v5.472A6.467,6.467,0,0,0,35,22.7h.746v4.528a11.543,11.543,0,0,0-8.408-4.129H25.842A1.492,1.492,0,0,0,24.3,24.637v1.343A11.689,11.689,0,0,0,35.543,37.122h.2l0,12.587h2.985V44.436A11.643,11.643,0,0,0,49.822,33.292V31.9a1.492,1.492,0,0,0-1.543-1.541Z" transform="translate(-24.3 -2.2)" fill="#fff"/>
</svg>
