<svg xmlns="http://www.w3.org/2000/svg" width="65.234" height="29.32" viewBox="0 0 65.234 29.32">
  <g id="Grupo_1107" data-name="Grupo 1107" transform="translate(-366.531 -255.573)">
    <rect id="Ret창ngulo_1619" data-name="Ret창ngulo 1619" width="6.712" height="5.597" transform="translate(366.531 255.661)" fill="#fff"/>
    <rect id="Ret창ngulo_1620" data-name="Ret창ngulo 1620" width="6.569" height="20.42" transform="translate(366.576 263.948)" fill="#fff"/>
    <path id="Caminho_340" data-name="Caminho 340" d="M392.842,255.573h6.739v28.753h-6.354V282.37a5.462,5.462,0,0,1-1.276,1.1,7.311,7.311,0,0,1-3.643,1,5.49,5.49,0,0,1-4.386-1.869c-1.694-1.981-2.081-4.946-2.081-8.894,0-3.843.7-6.546,2.779-8.375a5.972,5.972,0,0,1,4.087-1.434,5.232,5.232,0,0,1,2.492.477,4.536,4.536,0,0,1,1.643,1.33Zm.032,12.982a2.174,2.174,0,0,0-1.434-.841c-1.176,0-1.912.16-2.408,1.586a11.313,11.313,0,0,0-.326,3.557,54.24,54.24,0,0,0,.172,5.87c.23,1.339.744,2.026,1.741,2.026.974,0,1.467-.351,2.219-1.414Z" transform="translate(-6.702 0)" fill="#fff"/>
    <path id="Caminho_341" data-name="Caminho 341" d="M434.446,281.973l-11.023-.046a2.947,2.947,0,0,0-.016.454,4.462,4.462,0,0,0,.686,2.948,3.1,3.1,0,0,0,2.19,1.228,3.014,3.014,0,0,0,2.428-.847,5.221,5.221,0,0,0,1.061-1.845l4.481,1.723a6.356,6.356,0,0,1-.485,1.2q-2.214,4.289-7.7,4.289a8.368,8.368,0,0,1-6.154-2.215,11.017,11.017,0,0,1-3.049-8.171c0-3.78,1.094-6.633,2.944-8.557a8.249,8.249,0,0,1,6.238-2.439,7.857,7.857,0,0,1,5.042,1.668c1.792,1.355,2.853,3.522,3.241,6.5.088.733.1,2.527.115,4.112m-6.161-3.949c.015-.256.021-.448.021-.569a4.31,4.31,0,0,0-.732-2.966,2.184,2.184,0,0,0-1.752-.682,2.233,2.233,0,0,0-2.072,1.626,8.412,8.412,0,0,0-.411,2.591Z" transform="translate(-22.035 -6.181)" fill="#fff"/>
    <path id="Caminho_342" data-name="Caminho 342" d="M469.117,277.568H463.5a12.453,12.453,0,0,0-.373-2.5,1.972,1.972,0,0,0-1.709-1.372c-1.258,0-1.8.395-2.28,1.828a16.354,16.354,0,0,0-.4,4.318,24.678,24.678,0,0,0,.229,4.687,2.351,2.351,0,0,0,2.523,2.069,2.086,2.086,0,0,0,2.017-1.866,10.657,10.657,0,0,0,.173-2.1l5.327.731a8.768,8.768,0,0,1-1.95,5.15c-1.35,1.643-3.362,2.356-6.138,2.356a7.982,7.982,0,0,1-6.16-2.315,12.156,12.156,0,0,1-2.9-8.462,11.584,11.584,0,0,1,3.194-8.242,8.125,8.125,0,0,1,6.1-2.4,7.412,7.412,0,0,1,5.546,1.921,7.69,7.69,0,0,1,1.907,3.265,15.018,15.018,0,0,1,.517,2.938" transform="translate(-37.352 -6.072)" fill="#fff"/>
  </g>
</svg>
