<svg xmlns="http://www.w3.org/2000/svg" width="79.667" height="35.807" viewBox="0 0 79.667 35.807">
  <g id="Grupo_1151" data-name="Grupo 1151" transform="translate(-366.531 -255.573)">
    <rect id="Ret창ngulo_1619" data-name="Ret창ngulo 1619" width="8.197" height="6.835" transform="translate(366.531 255.68)" fill="#004568"/>
    <rect id="Ret창ngulo_1620" data-name="Ret창ngulo 1620" width="8.022" height="24.938" transform="translate(366.586 265.801)" fill="#004568"/>
    <path id="Caminho_340" data-name="Caminho 340" d="M395.276,255.573h8.23v35.115h-7.76V288.3a6.671,6.671,0,0,1-1.558,1.337,8.929,8.929,0,0,1-4.449,1.217,6.705,6.705,0,0,1-5.357-2.283c-2.069-2.42-2.542-6.04-2.542-10.861,0-4.693.853-7.994,3.394-10.228a7.294,7.294,0,0,1,4.992-1.751,6.39,6.39,0,0,1,3.044.582,5.54,5.54,0,0,1,2.006,1.625Zm.039,15.855a2.655,2.655,0,0,0-1.751-1.027c-1.436,0-2.334.2-2.941,1.937a13.816,13.816,0,0,0-.4,4.344,66.241,66.241,0,0,0,.21,7.168c.281,1.635.909,2.475,2.126,2.475,1.189,0,1.791-.428,2.709-1.727Z" transform="translate(-4.798)" fill="#004568"/>
    <path id="Caminho_341" data-name="Caminho 341" d="M438.335,284.69l-13.462-.056a3.6,3.6,0,0,0-.02.554c0,1.969.25,2.762.838,3.6a3.785,3.785,0,0,0,2.675,1.5,3.68,3.68,0,0,0,2.965-1.034,6.376,6.376,0,0,0,1.3-2.253l5.473,2.1a7.763,7.763,0,0,1-.592,1.461q-2.7,5.238-9.4,5.238a10.219,10.219,0,0,1-7.516-2.705c-2.344-2.3-3.724-5.627-3.724-9.979,0-4.617,1.335-8.1,3.6-10.45a10.075,10.075,0,0,1,7.619-2.979,9.6,9.6,0,0,1,6.157,2.036c2.189,1.655,3.485,4.3,3.958,7.941.107.9.123,3.086.141,5.021m-7.525-4.822c.018-.313.026-.547.026-.695,0-1.588-.193-2.925-.894-3.623a2.668,2.668,0,0,0-2.14-.833,2.727,2.727,0,0,0-2.531,1.986,10.272,10.272,0,0,0-.5,3.164Z" transform="translate(-15.774 -4.424)" fill="#004568"/>
    <path id="Caminho_342" data-name="Caminho 342" d="M472.936,279.365h-6.864a15.206,15.206,0,0,0-.455-3.053,2.409,2.409,0,0,0-2.087-1.676c-1.537,0-2.2.482-2.784,2.233a19.973,19.973,0,0,0-.487,5.273,30.134,30.134,0,0,0,.28,5.724c.531,1.918,1.529,2.527,3.081,2.527a2.548,2.548,0,0,0,2.463-2.279,13.016,13.016,0,0,0,.211-2.57l6.506.893c-.373,3.117-1.054,4.673-2.382,6.289-1.649,2.007-4.105,2.878-7.5,2.878q-4.9,0-7.523-2.827c-2.085-2.252-3.546-5.7-3.546-10.334a14.147,14.147,0,0,1,3.9-10.066,9.922,9.922,0,0,1,7.45-2.932c3.053,0,5.227.8,6.773,2.345a9.391,9.391,0,0,1,2.328,3.987,18.341,18.341,0,0,1,.632,3.588" transform="translate(-26.739 -4.347)" fill="#004568"/>
  </g>
</svg>
