<svg xmlns="http://www.w3.org/2000/svg" width="58.823" height="58.822" viewBox="0 0 58.823 58.822">
  <g id="Grupo_1174" data-name="Grupo 1174" transform="translate(-820.683 -1046.551)">
    <path id="np_fan_2640304_000000" d="M48.143,51.091l.353,6.464L61.128,70.184a6.419,6.419,0,1,0,9.06-9.06L57.556,48.493l-6.464-.353-1.176-1.176a8.054,8.054,0,0,1-2.951,2.951l1.176,1.176ZM38.059,38.055a6.96,6.96,0,1,1,0,9.841,6.967,6.967,0,0,1,0-9.841Zm2.951,2.951a2.787,2.787,0,1,0,3.942,0A2.782,2.782,0,0,0,41.01,41.007ZM37.816,51.091l-.353,6.464L24.831,70.187a6.419,6.419,0,1,1-9.06-9.06L28.4,48.5l6.464-.353,1.176-1.176a8.054,8.054,0,0,0,2.951,2.951l-1.176,1.176ZM34.864,37.813,28.4,37.459,15.771,24.828a6.419,6.419,0,1,1,9.06-9.06L37.462,28.4l.353,6.464,1.176,1.176a8.007,8.007,0,0,0-2.951,2.951l-1.176-1.176Zm16.23,0,6.464-.353L70.191,24.828a6.419,6.419,0,1,0-9.06-9.06L48.5,28.4l-.353,6.464-1.176,1.176a8.007,8.007,0,0,1,2.951,2.951L51.1,37.813Z" transform="translate(807.114 1032.984)" fill="#004568" fill-rule="evenodd"/>
    <rect id="Retângulo_2096" data-name="Retângulo 2096" width="7" height="9" transform="translate(847 1070.631)" fill="#004568"/>
  </g>
</svg>
