<svg xmlns="http://www.w3.org/2000/svg" width="95.056" height="59.044" viewBox="0 0 95.056 59.044">
  <path id="np_air-cooling_2168176_000000" d="M87.882,57.468a.764.764,0,0,0-.835-.668c-.334,0-.835.334-.835.668a2.764,2.764,0,0,1-.835,2.168,3.558,3.558,0,0,0-1.333,2.837,4.128,4.128,0,0,0,1.333,2.837,2.427,2.427,0,0,1,.835,2,2.562,2.562,0,0,1-.835,2.168,3.685,3.685,0,0,0,0,5.673,2.558,2.558,0,0,1,.835,2.168c0,.334.5.668.835.668a.764.764,0,0,0,.835-.668,3.671,3.671,0,0,0-1.166-2.837c-.668-.835-1-1.166-1-2.168a3.238,3.238,0,0,1,1-2.168,3.432,3.432,0,0,0,1.166-2.837,3.921,3.921,0,0,0-1.166-2.837,2.6,2.6,0,0,1-1-2,2.7,2.7,0,0,1,1-2.168A3.9,3.9,0,0,0,87.882,57.468ZM4.671,18.946H90.385a4.662,4.662,0,0,1,4.671,4.671V48.8a4.773,4.773,0,0,1-4.671,4.671H4.671A4.662,4.662,0,0,1,0,48.8V23.617A4.56,4.56,0,0,1,4.671,18.946Zm5.5,27.183H84.883a1,1,0,0,1,0,2H10.174a1,1,0,1,1,0-2ZM10.006,56.8a.719.719,0,0,0-.668.668c0,1-.334,1.333-1,2.168a3.432,3.432,0,0,0-1.166,2.837,3.922,3.922,0,0,0,1.166,2.837,2.6,2.6,0,0,1,1,2,2.7,2.7,0,0,1-1,2.168,4.034,4.034,0,0,0,0,5.673,2.684,2.684,0,0,1,1,2.168.719.719,0,0,0,.668.668.764.764,0,0,0,.835-.668,3.671,3.671,0,0,0-1.166-2.837c-.668-.835-1-1.166-1-2.168a3.238,3.238,0,0,1,1-2.168,3.432,3.432,0,0,0,1.166-2.837,3.921,3.921,0,0,0-1.166-2.837,2.6,2.6,0,0,1-1-2,2.7,2.7,0,0,1,1-2.168,3.9,3.9,0,0,0,1.166-2.837A.764.764,0,0,0,10.006,56.8Zm12.175,20.51a.719.719,0,0,0,.668.668.764.764,0,0,0,.835-.668,3.671,3.671,0,0,0-1.166-2.837c-.668-.835-1-1.166-1-2.168s.334-1.333,1-2.168A3.432,3.432,0,0,0,23.685,67.3a3.922,3.922,0,0,0-1.166-2.837,2.6,2.6,0,0,1-1-2,2.7,2.7,0,0,1,1-2.168,3.9,3.9,0,0,0,1.166-2.837.764.764,0,0,0-.835-.668.719.719,0,0,0-.668.668c0,1-.334,1.333-1,2.168a3.432,3.432,0,0,0-1.166,2.837A3.921,3.921,0,0,0,21.183,65.3a2.6,2.6,0,0,1,1,2,2.7,2.7,0,0,1-1,2.168,4.034,4.034,0,0,0,0,5.673A2.684,2.684,0,0,1,22.182,77.311Zm12.672,0c0,.334.5.668.835.668a.764.764,0,0,0,.835-.668,3.671,3.671,0,0,0-1.166-2.837c-.668-.835-1-1.166-1-2.168a3.238,3.238,0,0,1,1-2.168A3.432,3.432,0,0,0,36.525,67.3a3.922,3.922,0,0,0-1.166-2.837,2.6,2.6,0,0,1-1-2,2.7,2.7,0,0,1,1-2.168,3.9,3.9,0,0,0,1.166-2.837.764.764,0,0,0-.835-.668c-.334,0-.835.334-.835.668a2.764,2.764,0,0,1-.835,2.168,3.558,3.558,0,0,0-1.333,2.837A4.128,4.128,0,0,0,34.019,65.3a2.427,2.427,0,0,1,.835,2,2.562,2.562,0,0,1-.835,2.168,3.685,3.685,0,0,0,0,5.673A2.558,2.558,0,0,1,34.854,77.311ZM48.529,56.8c-.334,0-.835.334-.835.668a2.764,2.764,0,0,1-.835,2.168,3.558,3.558,0,0,0-1.333,2.837,4.128,4.128,0,0,0,1.333,2.837,2.427,2.427,0,0,1,.835,2,2.562,2.562,0,0,1-.835,2.168,3.685,3.685,0,0,0,0,5.673,2.558,2.558,0,0,1,.835,2.168c0,.334.5.668.835.668a.764.764,0,0,0,.835-.668A3.671,3.671,0,0,0,48.2,74.485c-.668-.835-1-1.166-1-2.168s.334-1.333,1-2.168a3.432,3.432,0,0,0,1.166-2.837A3.921,3.921,0,0,0,48.2,64.475a2.6,2.6,0,0,1-1-2,2.7,2.7,0,0,1,1-2.168,3.9,3.9,0,0,0,1.166-2.837A.764.764,0,0,0,48.529,56.8Zm13.675.668a.764.764,0,0,0-.835-.668c-.334,0-.835.334-.835.668a2.764,2.764,0,0,1-.835,2.168,3.558,3.558,0,0,0-1.333,2.837A4.128,4.128,0,0,0,59.7,65.311a2.427,2.427,0,0,1,.835,2A2.562,2.562,0,0,1,59.7,69.48a3.685,3.685,0,0,0,0,5.673,2.558,2.558,0,0,1,.835,2.168c0,.334.5.668.835.668a.764.764,0,0,0,.835-.668,3.671,3.671,0,0,0-1.166-2.837c-.668-.835-1-1.166-1-2.168s.334-1.333,1-2.168A3.432,3.432,0,0,0,62.2,67.312a3.921,3.921,0,0,0-1.166-2.837,2.6,2.6,0,0,1-1-2,2.7,2.7,0,0,1,1-2.168A3.9,3.9,0,0,0,62.2,57.469ZM74.212,56.8c-.334,0-.835.334-.835.668a2.764,2.764,0,0,1-.835,2.168,3.558,3.558,0,0,0-1.333,2.837,4.128,4.128,0,0,0,1.333,2.837,2.427,2.427,0,0,1,.835,2,2.562,2.562,0,0,1-.835,2.168,3.685,3.685,0,0,0,0,5.673,2.558,2.558,0,0,1,.835,2.168c0,.334.5.668.835.668a.764.764,0,0,0,.835-.668,3.671,3.671,0,0,0-1.166-2.837c-.668-.835-1-1.166-1-2.168a3.238,3.238,0,0,1,1-2.168,3.432,3.432,0,0,0,1.166-2.837,3.921,3.921,0,0,0-1.166-2.837,2.6,2.6,0,0,1-1-2,2.7,2.7,0,0,1,1-2.168,3.9,3.9,0,0,0,1.166-2.837A.764.764,0,0,0,74.212,56.8Z" transform="translate(0 -18.946)" fill="#004568" fill-rule="evenodd"/>
</svg>
