<svg id="np_magnify_610701_000000" xmlns="http://www.w3.org/2000/svg" width="15.99" height="16.482" viewBox="0 0 15.99 16.482">
  <path id="Caminho_201" data-name="Caminho 201" d="M16.538,9.375a6.066,6.066,0,0,1,.863.069,5.9,5.9,0,0,1,3.165,1.546,5.922,5.922,0,0,1,1.813,5.11,5.906,5.906,0,0,1-.517,1.748,5.933,5.933,0,1,1-6.339-8.392,6.154,6.154,0,0,1,.861-.079h.153Zm-.067,1.537a4.494,4.494,0,0,0-.642.051,4.347,4.347,0,0,0-1.138.337,4.393,4.393,0,1,0,2.532-.329,4.589,4.589,0,0,0-.639-.058h-.114Z" transform="translate(-10.566 -9.375)" fill="#004568"/>
  <path id="Caminho_202" data-name="Caminho 202" d="M52.885,53.256a.917.917,0,0,1,.125.019.755.755,0,0,1,.233.1.73.73,0,0,1,.1.077c.01.009.02.019.031.029l5.881,5.88a.857.857,0,0,1,.082.1.771.771,0,0,1-.1,1,.8.8,0,0,1-.21.141.769.769,0,0,1-.8-.1.829.829,0,0,1-.063-.056l-5.881-5.88a.924.924,0,0,1-.082-.1.756.756,0,0,1-.111-.228.777.777,0,0,1-.031-.251.759.759,0,0,1,.038-.208.767.767,0,0,1,.656-.525c.037,0,.047,0,.085,0l.042,0Z" transform="translate(-43.491 -44.189)" fill="#004568"/>
</svg>
