<svg xmlns="http://www.w3.org/2000/svg" width="157.723" height="120.909" viewBox="0 0 157.723 120.909">
  <g id="Grupo_1189" data-name="Grupo 1189" transform="translate(-290 -290.01)">
    <path id="np_energy_3321828_000000" d="M50,3.055A36.111,36.111,0,0,0,33.14,71.083v12.25a6.389,6.389,0,0,0,6.414,6.418h3.223v.8A6.389,6.389,0,0,0,49.2,96.973H50.8a6.389,6.389,0,0,0,6.418-6.418v-.832h3.223a6.388,6.388,0,0,0,6.414-6.391V71.11A36.111,36.111,0,0,0,50,3.055ZM64.027,33.332,55.168,46.391l-3.25,4.8-1.641,2.418L45.3,61.11a2.388,2.388,0,0,1-2,1.059h-.887a2.387,2.387,0,0,1-1.473-2.641L42.335,51.5,44,41.891H37.972a2.4,2.4,0,0,1-1.945-.973,2.56,2.56,0,0,1-.387-2.141L41.918,18.3a2.363,2.363,0,0,1,2.277-1.7h12.5a2.44,2.44,0,0,1,1.945,1,2.355,2.355,0,0,1,.332,2.168l-3.418,9.75H62a2.416,2.416,0,0,1,2.027,3.8Z" transform="translate(276.079 313.945)" fill="#15ab53"/>
    <path id="np_positive-feedback_2041248_000000" d="M69.3,30.728A33.892,33.892,0,0,0,2.189,40.245,33.393,33.393,0,0,0,3.229,45a33.918,33.918,0,0,0,4.266,8.423c0,.273.055.547.055.82A15.558,15.558,0,0,1,1.259,67.1a.907.907,0,0,0-.328.875.756.756,0,0,0,.656.6,24.131,24.131,0,0,0,16.956-3.883,3.033,3.033,0,0,0,.438-.328l.109-.109A39.66,39.66,0,0,0,31.506,69.07a34.77,34.77,0,0,0,8.915-.055A33.834,33.834,0,0,0,69.3,30.728ZM24.615,50.911a.864.864,0,0,1-.875.875H18.927a.864.864,0,0,1-.875-.875V35.705a.864.864,0,0,1,.875-.875H23.74a.864.864,0,0,1,.875.875ZM50.486,50.2a3.453,3.453,0,0,1-3.391,2.789H36.265a19.65,19.65,0,0,1-2.571-.164l-2.461-.273s-4.047-.766-4.157-.766h-.055a1.166,1.166,0,0,1-.82-1.094V37.347a1.173,1.173,0,0,1,.6-1.039,8.708,8.708,0,0,0,2.954-2.954l8.7-13.674a3.181,3.181,0,0,1,5.962.93,1.861,1.861,0,0,1,.055.547,2.663,2.663,0,0,1-.055.656c0,.109-.055.164-.055.273l-.547,1.7-1.094,3.5-.328,1.258-.383,1.2V29.8h8.915a3.345,3.345,0,0,1,3.063,3.391Z" transform="translate(378.082 288.404)" fill="#15ab53"/>
  </g>
</svg>
